<svg id="Layer_1" height="512" viewBox="0 0 512 512" width="512" xmlns="http://www.w3.org/2000/svg" xmlns:xlink="http://www.w3.org/1999/xlink" data-name="Layer 1"><linearGradient id="linear-gradient" gradientUnits="userSpaceOnUse" x2="512" y1="256" y2="256"><stop offset="0" stop-color="#60b7ff"/><stop offset="1" stop-color="#007ee9"/></linearGradient><path d="m486.562 390.394h-161.591l-2.655-18.377c-6.224-43.274-30.472-82.625-68.171-99.823 10.561-36.636 38.407-64.9 77.433-64.9h88.879c44.542 0 74.542 36.784 80.884 80.883l10.324 71.563c2.39 16.702-8.23 30.654-25.103 30.654zm-110.53-209.644a81.4 81.4 0 1 0 -81.415-81.386 81.528 81.528 0 0 0 81.415 81.386zm-70.206 193.656c-7.433-51.622-42.507-94.689-94.66-94.689h-104.04c-52.124 0-87.227 43.067-94.66 94.689l-12.066 83.746c-2.832 19.557 9.587 35.9 29.351 35.9h258.789c19.764 0 32.183-16.342 29.38-35.9zm-146.665-125.751a95.294 95.294 0 1 0 -95.309-95.279 95.464 95.464 0 0 0 95.309 95.279z" fill="url(#linear-gradient)" fill-rule="evenodd"/></svg>