<svg xmlns="http://www.w3.org/2000/svg" xmlns:xlink="http://www.w3.org/1999/xlink" viewBox="0 0 24 24"><linearGradient id="New_Gradient_Swatch" gradientUnits="userSpaceOnUse" x1="4.64" x2="19.36" y1="22.11" y2="7.39"><stop offset="0" stop-color="#6d03a8" /><stop offset="1" stop-color="#fd60c4" /></linearGradient><g id="Icon"><path d="m20.75 9.5v10.5a1.76 1.76 0 0 1 -1.75 1.75h-4a.76.76 0 0 1 -.75-.75v-4a2.25 2.25 0 0 0 -4.5 0v4a.76.76 0 0 1 -.75.75h-4a1.76 1.76 0 0 1 -1.75-1.75v-10.5a1.77 1.77 0 0 1 .75-1.4l7-5.25a1.74 1.74 0 0 1 2.1 0l7 5.25a1.77 1.77 0 0 1 .65 1.4z" fill="url(#New_Gradient_Swatch)" /></g></svg>