<svg id="Gradient" viewBox="0 0 48 48" xmlns="http://www.w3.org/2000/svg" xmlns:xlink="http://www.w3.org/1999/xlink"><linearGradient id="linear-gradient" gradientUnits="userSpaceOnUse" x1="19" x2="19" y1="8" y2="37.064"><stop offset="0" stop-color="#fa6a85"/><stop offset="1" stop-color="#e62344"/></linearGradient><linearGradient id="linear-gradient-2" x1="40" x2="40" xlink:href="#linear-gradient" y1="8.021" y2="37.085"/><rect fill="url(#linear-gradient)" height="32" rx="5" width="30" x="4" y="8"/><path d="m44 14.45v19.1c0 .55-.22 1.09-.61 1.47-.4.41-.94.61-1.47.61-.46 0-.92-.15-1.3-.45l-3.87-3.1c-.48-.38-.75-.95-.75-1.56v-13.04c0-.61.27-1.18.75-1.56l3.87-3.1c.83-.66 2.02-.59 2.77.16.39.38.61.92.61 1.47z" fill="url(#linear-gradient-2)"/></svg>