<svg fill="none" height="24" viewBox="0 0 24 24" width="24" xmlns="http://www.w3.org/2000/svg" xmlns:xlink="http://www.w3.org/1999/xlink"><linearGradient id="paint0_linear_1_664" gradientUnits="userSpaceOnUse" x1="12" x2="12" y1="1.25" y2="22.75"><stop offset="0" stop-color="#a3a3ff"/><stop offset="1" stop-color="#1f1fff"/></linearGradient><g clip-rule="evenodd" fill="url(#paint0_linear_1_664)" fill-rule="evenodd"><path d="m13.25 14c0-.4142.3358-.75.75-.75h8c.4142 0 .75.3358.75.75v8c0 .4142-.3358.75-.75.75h-8c-.4142 0-.75-.3358-.75-.75zm1.5.75v6.5h6.5v-6.5z"/><path d="m6.5 1.25c.27096 0 .52084.14615.65368.3823l4.50002 8c.1306.23223.1282.5163-.0063.7463s-.381.3714-.6474.3714h-9c-.26645 0-.51289-.1414-.64741-.3714-.13451-.23-.1369-.51407-.00627-.7463l4.5-8c.13284-.23615.38272-.3823.65368-.3823zm-3.21761 8h6.43522l-3.21761-5.7202z"/><path d="m13.25 6c0-2.62335 2.1266-4.75 4.75-4.75s4.75 2.12665 4.75 4.75c0 2.62336-2.1266 4.75-4.75 4.75s-4.75-2.12664-4.75-4.75zm4.75-3.25c-1.7949 0-3.25 1.45507-3.25 3.25 0 1.79494 1.4551 3.25 3.25 3.25s3.25-1.45506 3.25-3.25c0-1.79493-1.4551-3.25-3.25-3.25z"/><path d="m1.46967 13.4697c.29289-.2929.76777-.2929 1.06066 0l7.99997 8c.2929.2929.2929.7677 0 1.0606s-.76774.2929-1.06063 0l-8-8c-.29289-.2929-.29289-.7677 0-1.0606z"/><path d="m10.5303 13.4697c.2929.2929.2929.7677 0 1.0606l-7.99997 8c-.29289.2929-.76777.2929-1.06066 0s-.29289-.7677 0-1.0606l8-8c.29289-.2929.76773-.2929 1.06063 0z"/></g></svg>