<svg height="512" viewBox="0 0 24 24" width="512" xmlns="http://www.w3.org/2000/svg" xmlns:xlink="http://www.w3.org/1999/xlink"><linearGradient id="_2" gradientUnits="userSpaceOnUse" x1="2" x2="22" y1="10.515" y2="10.515"><stop offset="0" stop-color="#16b0e2"/><stop offset="1" stop-color="#6e5af0"/></linearGradient><linearGradient id="_2-2" x1="6.625" x2="11.375" xlink:href="#_2" y1="8" y2="8"/><linearGradient id="_2-3" x1="2.56" xlink:href="#_2" y1="16.999" y2="16.999"/><g id="_01" data-name="01"><path d="m22 7.81v6.09l-1.63-1.4a2.229 2.229 0 0 0 -2.82 0l-4.16 3.57a2.229 2.229 0 0 1 -2.82 0l-.34-.28a2.221 2.221 0 0 0 -2.64-.14l-4.92 3.3-.11.08a6.723 6.723 0 0 1 -.56-2.84v-8.38c0-3.64 2.17-5.81 5.81-5.81h8.38c3.64 0 5.81 2.17 5.81 5.81z" fill="url(#_2)" opacity=".4"/><path d="m11.375 8a2.375 2.375 0 1 1 -2.375-2.375 2.377 2.377 0 0 1 2.375 2.375z" fill="url(#_2-2)"/><path d="m22 13.9v2.29c0 3.64-2.17 5.81-5.81 5.81h-8.38c-2.55 0-4.39-1.07-5.25-2.97l.11-.08 4.92-3.3a2.221 2.221 0 0 1 2.64.14l.34.28a2.229 2.229 0 0 0 2.82 0l4.16-3.57a2.229 2.229 0 0 1 2.82 0z" fill="url(#_2-3)"/></g></svg>